{"title":"The Sacred Science (2011) Online Screening WEBRip 720px264-[f1d]","uid":12232772,"size":1506918493,"categoryP":"video","categoryS":"movies","magnet":"?xt=urn:btih:ccd8ade781f20c05cd5149cf0d5863b5ca939bf3&amp;dn=The+Sacred+Science+%282011%29+Online+Screening+WEBRip+720px264-%5Bf1d%5D&amp;tr=udp%3A%2F%2Ftracker.openbittorrent.com%3A80&amp;tr=udp%3A%2F%2Fopen.demonii.com%3A1337&amp;tr=udp%3A%2F%2Ftracker.coppersurfer.tk%3A6969&amp;tr=udp%3A%2F%2Fexodus.desync.com%3A6969","seeders":0,"leechers":1,"uploader":"F1_Dance","files":1,"time":1439599016,"description":"The Sacred Science\n\nEight people. Eight illnesses. One journey into the heart of the Amazon jungle. They went looking for alternatives to the modern medicines that failed them. What they found would change their lives forever.\n\nDiabetes. Prostate cancer. Alcoholism. Parkinson's diseases. Just a handful of many common illnesses that Western medicine has been inadequate in curing or treating. Witness the story of eight brave souls as they leave the developed world behind in search of deeper answers. Living in seclusion for one month in the heart of the Amazon jungle, these men and women take part in the powerful healing practices of Peru's indigenous medicine men, working with centuries-old plant remedies and spiritual disciplines. In their most desperate hour, these patients are forced to confront not only their physical ailments, but their own spiritual and psychological barriers in the process. Five will return with real results, two will return disappointed, and one won't come back at all.\n\n\nGeneral\nComplete name : The.Sacred.Science.(2011).Online.Screening.WEBRip.720p.x264-[f1d].MP4\nFormat : MPEG-4\nFormat profile : Base Media / Version 2\nCodec ID : mp42\nFile size : 1.40 GiB\nDuration : 1h 15mn\nOverall bit rate mode : Variable\nOverall bit rate : 2 658 Kbps\nEncoded date : UTC 2013-09-18 18:10:13\nTagged date : UTC 2013-09-18 18:10:13\n\nVideo\nID : 1\nFormat : AVC\nFormat/Info : Advanced Video Codec\nFormat profile : &lt;a class=&quot;__cf_email__&quot; href=&quot;/cdn-cgi/l/email-protection&quot; data-cfemail=&quot;e9a1808e81a9a5dac7d8&quot;&gt;[email&amp;#160;protected]&lt;/a&gt;&lt;script data-cfhash='f9e31' type=&quot;text/javascript&quot;&gt;\n/* &lt;![CDATA[ */!function(){try{var t=&quot;currentScript&quot;in document?document.currentScript:function(){for(var t=document.getElementsByTagName(&quot;script&quot;),e=t.length;e--;)if(t[e].getAttribute(&quot;data-cfhash&quot;))return t[e]}();if(t&amp;&amp;t.previousSibling){var e,r,n,i,c=t.previousSibling,a=c.getAttribute(&quot;data-cfemail&quot;);if(a){for(e=&quot;&quot;,r=parseInt(a.substr(0,2),16),n=2;a.length-n;n+=2)i=parseInt(a.substr(n,2),16)^r,e+=String.fromCharCode(i);e=document.createTextNode(e),c.parentNode.replaceChild(e,c)}t.parentNode.removeChild(t);}}catch(u){}}()/* ]]&gt; */&lt;/script&gt;\nFormat settings, CABAC : Yes\nFormat settings, ReFrames : 4 frames\nCodec ID : avc1\nCodec ID/Info : Advanced Video Coding\nDuration : 1h 15mn\nBit rate : 2 500 Kbps\nWidth : 1 280 pixels\nHeight : 720 pixels\nDisplay aspect ratio : 16:9\nFrame rate mode : Constant\nFrame rate : 23.976 fps\nColor space : YUV\nChroma subsampling : 4:2:0\nBit depth : 8 bits\nScan type : Progressive\nBits/(Pixel*Frame) : 0.113\nStream size : 1.32 GiB (94%)\nWriting library : x264 core 129 r2245 bc13772\nEncoding settings : cabac=1 / ref=3 / deblock=1:0:0 / analyse=0x3:0x113 / me=hex / subme=7 / psy=1 / psy_rd=1.00:0.00 / mixed_ref=1 / me_range=16 / chroma_me=1 / trellis=1 / 8x8dct=1 / cqm=0 / deadzone=21,11 / fast_pskip=1 / chroma_qp_offset=-2 / threads=12 / lookahead_threads=2 / sliced_threads=0 / nr=0 / decimate=1 / interlaced=0 / bluray_compat=0 / constrained_intra=0 / bframes=3 / b_pyramid=2 / b_adapt=1 / b_bias=0 / direct=1 / weightb=1 / open_gop=0 / weightp=2 / keyint=72 / keyint_min=24 / scenecut=40 / intra_refresh=0 / rc_lookahead=40 / rc=2pass / mbtree=1 / bitrate=2500 / ratetol=1.0 / qcomp=0.60 / qpmin=5 / qpmax=69 / qpstep=4 / cplxblur=20.0 / qblur=0.5 / vbv_maxrate=3750 / vbv_bufsize=12500 / nal_hrd=none / ip_ratio=1.40 / aq=1:1.00\nEncoded date : UTC 2013-09-18 18:10:13\nTagged date : UTC 2013-09-18 18:10:13\n\nAudio\nID : 2\nFormat : AAC\nFormat/Info : Advanced Audio Codec\nFormat profile : LC\nCodec ID : 40\nDuration : 1h 15mn\nSource duration : 1h 15mn\nBit rate mode : Variable\nBit rate : 158 Kbps\nChannel(s) : 2 channels\nChannel positions : Front: L R\nSampling rate : 44.1 KHz\nCompression mode : Lossy\nStream size : 85.2 MiB (6%)\nSource stream size : 85.2 MiB (6%)\nEncoded date : UTC 2013-09-18 18:10:13\nTagged date : UTC 2013-09-18 18:10:13","torrent":{"xt":"urn:btih:ccd8ade781f20c05cd5149cf0d5863b5ca939bf3","amp;dn":"The+Sacred+Science+%282011%29+Online+Screening+WEBRip+720px264-%5Bf1d%5D","amp;tr":["udp%3A%2F%2Ftracker.openbittorrent.com%3A80","udp%3A%2F%2Fopen.demonii.com%3A1337","udp%3A%2F%2Ftracker.coppersurfer.tk%3A6969","udp%3A%2F%2Fexodus.desync.com%3A6969"],"infoHash":"ccd8ade781f20c05cd5149cf0d5863b5ca939bf3","infoHashBuffer":{"type":"Buffer","data":[204,216,173,231,129,242,12,5,205,81,73,207,13,88,99,181,202,147,155,243]},"announce":[],"urlList":[]}}